<svg xmlns="http://www.w3.org/2000/svg" viewBox="0 0 45.17 35.66"><title>Zasób 4</title><g id="Warstwa_2" data-name="Warstwa 2"><g id="Warstwa_1-2" data-name="Warstwa 1"><path d="M22.58,26.75c-3.61,0-7.22-3.13-9-4.46C4.52,16.05,1.81,13.82,0,12.48V31.2a4.49,4.49,0,0,0,4.52,4.46H40.65a4.49,4.49,0,0,0,4.52-4.46V12.48c-1.81,1.34-4.52,3.57-13.55,9.81C29.81,23.62,26.2,26.75,22.58,26.75ZM40.65,0H4.52A4.49,4.49,0,0,0,0,4.46V6.69c3.61,2.67,3.16,2.67,16.26,12,1.36.89,4.07,3.57,6.32,3.57s5-2.68,6.33-3.12C42,9.81,41.56,9.81,45.17,7.13V4.46A4.49,4.49,0,0,0,40.65,0Z"/></g></g></svg>