<svg xmlns="http://www.w3.org/2000/svg" viewBox="0 0 50.5 50.5"><defs><style>.cls-1{fill:#fff;stroke:#000;stroke-miterlimit:10;stroke-width:0.5px;}</style></defs><title>Zasób 2</title><g id="Warstwa_2" data-name="Warstwa 2"><g id="Warstwa_1-2" data-name="Warstwa 1"><path class="cls-1" d="M25.26,12.43A12.82,12.82,0,1,0,38.07,25.25,12.79,12.79,0,0,0,25.26,12.43Zm0,21.15a8.33,8.33,0,1,1,8.33-8.33,8.35,8.35,0,0,1-8.33,8.33ZM41.59,11.91a3,3,0,1,1-3-3A3,3,0,0,1,41.59,11.91Zm8.48,3c-.19-4-1.1-7.55-4-10.47S39.57.63,35.56.43,19.06.19,14.94.43s-7.54,1.1-10.48,4S.63,10.92.43,14.93s-.24,16.5,0,20.63,1.1,7.55,4,10.48,6.47,3.83,10.48,4,16.5.24,20.62,0S43.11,49,46,46s3.83-6.48,4-10.48.24-16.49,0-20.62ZM44.74,40A8.41,8.41,0,0,1,40,44.74c-3.29,1.31-11.1,1-14.73,1s-11.46.29-14.74-1A8.41,8.41,0,0,1,5.77,40c-1.31-3.29-1-11.1-1-14.74s-.29-11.46,1-14.74a8.44,8.44,0,0,1,4.75-4.75c3.29-1.31,11.1-1,14.74-1s11.45-.29,14.73,1a8.41,8.41,0,0,1,4.75,4.75c1.31,3.29,1,11.1,1,14.74S46.05,36.71,44.74,40Z"/></g></g></svg>