<?xml version="1.0" encoding="utf-8"?>
<!-- Generator: Adobe Illustrator 23.0.1, SVG Export Plug-In . SVG Version: 6.00 Build 0)  -->
<svg version="1.1" id="Warstwa_1" xmlns="http://www.w3.org/2000/svg" xmlns:xlink="http://www.w3.org/1999/xlink" x="0px" y="0px"
	 viewBox="0 0 1920 1080" style="enable-background:new 0 0 1920 1080;" xml:space="preserve">
<style type="text/css">
	.st0{fill:url(#SVGID_1_);}
	.st1{fill:url(#SVGID_2_);}
</style>
<g>
	<linearGradient id="SVGID_1_" gradientUnits="userSpaceOnUse" x1="960.4154" y1="560.4332" x2="959.2535" y2="21.6347">
		<stop  offset="0" style="stop-color:#C149DF;stop-opacity:0"/>
		<stop  offset="4.056364e-02" style="stop-color:#BA47D7;stop-opacity:4.056364e-02"/>
		<stop  offset="0.3665" style="stop-color:#83349F;stop-opacity:0.3665"/>
		<stop  offset="0.6465" style="stop-color:#5B2676;stop-opacity:0.6465"/>
		<stop  offset="0.8668" style="stop-color:#421E5D;stop-opacity:0.8668"/>
		<stop  offset="1" style="stop-color:#391B54"/>
	</linearGradient>
	<path class="st0" d="M-1.1,231.9c46.7,25.8,124.8-1.7,172.1-34.9c97.5-68.4,96-183.2,160-188c26.7-2,53.4,16,65,36
		c14,24.2,3.8,51.6-30,144c-24.2,66.2-42.4,121.9-54.9,161.6c-16,68.4,47,129.1,114.8,110.4c26.6-7.3,48.5-26.1,59.8-51.3
		L638.5,70.1C673.3-7.1,787.4,9,799.3,92.9c1.2,8.7,0.4,17.6-2.5,25.9l-50.7,147.5c-27.5,80,67.2,145.8,132.6,92.2
		c12.3-10.1,22.3-22.6,29.5-36.8l108.6-215.6c69.9-69.5,184.4,8.6,145.1,99L997.1,584.1c-31.5,72.4,54.5,138.9,116.7,90.3
		c9.3-7.3,16.8-16.6,21.9-27.3c65.6-138.1,131.1-276.2,196.7-414.3c7.7-14.6,28.3-49.3,70.6-72.5c3.6-2,7.3-3.8,7.3-3.8
		c26.5-13.1,49.7-16.3,55.8-17c17.8-2.1,38.7-4.7,56.7,3.6c40.3,18.6,27.1,73.6,65.3,107.9c29.9,26.9,72.7,24.3,95,23
		c107.2-6.3,185.9-124,236.8-190.6c0-0.3,0.1-0.6,0.2-0.9V0h-729.3C557.2,0,557.2,0,557.2,0c-5.6,0-83.1,0-160.2,0
		c-15.6,0-42.2,0-49.5,0c-85.8,0-128.8,0-133.4-0.2c0,0-0.1,0-0.1,0c-9.7,0-86.6,0.1-87.3,0.1c-23.5,0-47,0-70.5,0.1
		C50.1,0,32,0.1,22.6,0c-6.5-0.1-8.4-0.1-12.4-0.1c-3,0-6.1,0-6.1,0C1.8,0,0.1,0,0,0"/>
</g>
<g>
	
		<linearGradient id="SVGID_2_" gradientUnits="userSpaceOnUse" x1="677.6059" y1="450.9998" x2="809.7938" y2="450.9998" gradientTransform="matrix(0.1482 -0.989 0.989 0.1482 187.45 1119.6375)">
		<stop  offset="0" style="stop-color:#C149DF;stop-opacity:0"/>
		<stop  offset="4.056364e-02" style="stop-color:#BA47D7;stop-opacity:4.056364e-02"/>
		<stop  offset="0.3665" style="stop-color:#83349F;stop-opacity:0.3665"/>
		<stop  offset="0.6465" style="stop-color:#5B2676;stop-opacity:0.6465"/>
		<stop  offset="0.8668" style="stop-color:#421E5D;stop-opacity:0.8668"/>
		<stop  offset="1" style="stop-color:#391B54"/>
	</linearGradient>
	<circle class="st1" cx="743.7" cy="451" r="66.1"/>
</g>
</svg>
