<?xml version="1.0" encoding="utf-8"?>
<!-- Generator: Adobe Illustrator 23.0.1, SVG Export Plug-In . SVG Version: 6.00 Build 0)  -->
<svg version="1.1" id="Warstwa_1" xmlns="http://www.w3.org/2000/svg" xmlns:xlink="http://www.w3.org/1999/xlink" x="0px" y="0px"
	 viewBox="0 0 1920 1080" style="enable-background:new 0 0 1920 1080;" xml:space="preserve">
<style type="text/css">
	.st0{fill:url(#SVGID_1_);}
	.st1{fill:url(#SVGID_2_);}
</style>
<linearGradient id="SVGID_1_" gradientUnits="userSpaceOnUse" x1="959.6174" y1="-76.6228" x2="964.2454" y2="1070.012">
	<stop  offset="5.115097e-02" style="stop-color:#C149DF;stop-opacity:0"/>
	<stop  offset="9.071826e-02" style="stop-color:#B846D6;stop-opacity:4.170030e-02"/>
	<stop  offset="0.3035" style="stop-color:#8B37A8;stop-opacity:0.2659"/>
	<stop  offset="0.507" style="stop-color:#672B83;stop-opacity:0.4804"/>
	<stop  offset="0.6963" style="stop-color:#4E2269;stop-opacity:0.68"/>
	<stop  offset="0.8662" style="stop-color:#3E1D5A;stop-opacity:0.859"/>
	<stop  offset="1" style="stop-color:#391B54"/>
</linearGradient>
<path class="st0" d="M1921.3,1080H0V270.5v491.8v123l287.2-783.2c14.5-39.4,45.6-70.5,85.1-84.9c115.3-42,226.3,71.6,181.6,185.8
	C491.6,377.4,429.3,551.7,367,726c-16.9,42.8-7.3,90.5,23.8,119.4c40.3,37.5,100.6,28.2,135.8,5c20.2-13.2,31.6-30.6,37.7-42.1
	L748,457.5c29.3-43.4,96.3-8.6,77.7,40.3l-25.2,66.5c-31,81.8,84.9,136,127.7,59.7L1196,146.7c63.7-113.4,236.9-43.1,203.5,82.6
	C1347,427,1626.1,529.5,1714,344.8l114.4-240.5c19.6-41.1,56.5-65.2,95.9-71"/>
<linearGradient id="SVGID_2_" gradientUnits="userSpaceOnUse" x1="1083.5497" y1="1230.6675" x2="953.2249" y2="1252.9092" gradientTransform="matrix(0.1482 -0.989 0.989 0.1482 187.45 1119.6375)">
	<stop  offset="5.115097e-02" style="stop-color:#C149DF;stop-opacity:0"/>
	<stop  offset="0.2062" style="stop-color:#B144CF;stop-opacity:0.1634"/>
	<stop  offset="0.5109" style="stop-color:#8735A4;stop-opacity:0.4845"/>
	<stop  offset="0.9322" style="stop-color:#441F60;stop-opacity:0.9285"/>
	<stop  offset="1" style="stop-color:#391B54"/>
</linearGradient>
<circle class="st1" cx="1566.7" cy="308" r="66.1"/>
</svg>
