<svg xmlns="http://www.w3.org/2000/svg" viewBox="0 0 314 99"><title>Zasób 1</title><g id="Warstwa_2" data-name="Warstwa 2"><g id="Warstwa_1-2" data-name="Warstwa 1"><circle cx="50" cy="5" r="3"/><circle cx="38" cy="18" r="3"/><circle cx="26" cy="31" r="3"/><circle cx="15" cy="44" r="3"/><circle cx="3" cy="57" r="3"/><circle cx="97" cy="3" r="3"/><circle cx="85" cy="16" r="3"/><circle cx="147" cy="5" r="3"/><circle cx="135" cy="18" r="3"/><circle cx="194" cy="5" r="3"/><circle cx="182" cy="18" r="3"/><circle cx="241" cy="5" r="3"/><circle cx="229" cy="18" r="3"/><circle cx="288" cy="5" r="3"/><circle cx="276" cy="18" r="3"/><circle cx="311" cy="31" r="3"/><circle cx="300" cy="44" r="3"/><circle cx="288" cy="57" r="3"/><circle cx="124" cy="83" r="3"/><circle cx="112" cy="96" r="3"/><circle cx="77" cy="83" r="3"/><circle cx="65" cy="96" r="3"/><circle cx="41" cy="70" r="3"/><circle cx="30" cy="83" r="3"/><circle cx="18" cy="96" r="3"/><circle cx="171" cy="83" r="3"/><circle cx="159" cy="96" r="3"/><circle cx="218" cy="83" r="3"/><circle cx="206" cy="96" r="3"/><circle cx="276" cy="70" r="3"/><circle cx="265" cy="83" r="3"/><circle cx="253" cy="96" r="3"/></g></g></svg>