<svg xmlns="http://www.w3.org/2000/svg" viewBox="0 0 314.99 243.62"><defs><style>.cls-1,.cls-7{fill:none;stroke:#000;stroke-miterlimit:10;}.cls-1{stroke-width:2px;}.cls-2{fill:#c149df;}.cls-3{fill:#391b54;}.cls-4{fill:#00b4ae;}.cls-5{fill:#9930a6;}.cls-6{fill:#7aa5ac;}.cls-7{stroke-width:1.5px;}.cls-8{opacity:0.27;}</style></defs><title>polaroid2</title><g id="Warstwa_2" data-name="Warstwa 2"><g id="Warstwa_1-2" data-name="Warstwa 1"><path class="cls-1" d="M291.86,120.47H26.08L1.78,160.24H313.31Z"/><rect class="cls-1" x="1.44" y="160.24" width="311.53" height="22.38"/><path class="cls-2" d="M166.06,161.09H149q.72-20,1.45-40h14.1Z"/><path class="cls-3" d="M132.64,160.6h-17q6.51-20,13-40l13.53-.14Q137.42,140.54,132.64,160.6Z"/><path class="cls-4" d="M199.49,161.09h-17q-4.25-20.21-8.48-40.4h13.79Z"/><rect class="cls-3" x="115.63" y="160.6" width="17.02" height="21.6"/><rect class="cls-5" x="132.01" y="161.09" width="17.02" height="20.65"/><rect class="cls-2" x="149.04" y="161.09" width="17.02" height="20.98"/><rect class="cls-4" x="182.47" y="161.09" width="17.02" height="20.98"/><rect class="cls-6" x="166.06" y="161.09" width="17.02" height="20.65"/><path class="cls-1" d="M297.36,242.34l-280.59.28c-3.59,0-6.63-2.29-7.09-5.36q-4.12-27.31-8.24-54.64H313q-4.28,27.19-8.54,54.4C304,240.06,300.93,242.34,297.36,242.34Z"/><path class="cls-7" d="M32,6.88H287.77A5.11,5.11,0,0,1,292.88,12V120.3a0,0,0,0,1,0,0H26.6a0,0,0,0,1,0,0v-108A5.43,5.43,0,0,1,32,6.88Z"/><circle class="cls-1" cx="63.36" cy="93.16" r="13.31"/><rect class="cls-1" x="40.02" y="16.07" width="66.04" height="19.06" rx="3.49"/><rect class="cls-1" x="36.64" y="204.09" width="237.37" height="13.55" rx="6.78"/><line class="cls-1" x1="35.9" y1="211.17" x2="273.85" y2="211.17"/><rect class="cls-8" x="115.63" y="161.09" width="83.85" height="2.87"/><circle class="cls-1" cx="157.55" cy="63.59" r="50.55"/><circle class="cls-1" cx="157.21" cy="63.76" r="29.15"/><circle class="cls-1" cx="213.42" cy="101.51" r="13.37"/><rect class="cls-1" x="237.93" y="19.98" width="44.2" height="44.2" rx="4.95"/><circle class="cls-1" cx="260.19" cy="42.08" r="7.94"/><rect class="cls-7" x="79.42" y="0.75" width="156.26" height="12.6" rx="6.3"/><path class="cls-5" d="M149,161.09H132l8.82-40h9.66Q149.76,141.08,149,161.09Z"/><path class="cls-6" d="M183.08,161.09H166q-.72-20-1.45-40l10.35.13Q179,141.15,183.08,161.09Z"/><path class="cls-8" d="M188.68,123.75H127.61l1-3.15,59.1.07C188.07,121.7,188.37,122.72,188.68,123.75Z"/></g></g></svg>