<svg xmlns="http://www.w3.org/2000/svg" xmlns:xlink="http://www.w3.org/1999/xlink" viewBox="0 0 35.63 35.63"><defs><style>.cls-1{fill:url(#linear-gradient);}.cls-2{fill:url(#linear-gradient-2);}.cls-3{fill:url(#linear-gradient-3);}</style><linearGradient id="linear-gradient" x1="10.92" y1="-7.17" x2="43.23" y2="23.75" gradientUnits="userSpaceOnUse"><stop offset="0" stop-color="#fbe18a"/><stop offset="0.21" stop-color="#fcbb45"/><stop offset="0.38" stop-color="#f75274"/><stop offset="0.52" stop-color="#d53692"/><stop offset="0.74" stop-color="#8f39ce"/><stop offset="1" stop-color="#5b4fe9"/></linearGradient><linearGradient id="linear-gradient-2" x1="1.81" y1="2.35" x2="34.12" y2="33.28" xlink:href="#linear-gradient"/><linearGradient id="linear-gradient-3" x1="1.74" y1="2.43" x2="34.05" y2="33.35" xlink:href="#linear-gradient"/></defs><title>Zasób 1</title><g id="Warstwa_2" data-name="Warstwa 2"><g id="ELEMENTS"><path class="cls-1" d="M27.24,6.36a2.09,2.09,0,1,0,2.09,2.09A2.09,2.09,0,0,0,27.24,6.36Z"/><path class="cls-2" d="M18,9a8.78,8.78,0,1,0,8.77,8.77A8.78,8.78,0,0,0,18,9Zm0,14.39a5.62,5.62,0,1,1,5.62-5.62A5.62,5.62,0,0,1,18,23.43Z"/><path class="cls-3" d="M24.92,35.63H10.7A10.71,10.71,0,0,1,0,24.93V10.7A10.71,10.71,0,0,1,10.7,0H24.92A10.72,10.72,0,0,1,35.63,10.7V24.93A10.72,10.72,0,0,1,24.92,35.63ZM10.7,3.35A7.36,7.36,0,0,0,3.35,10.7V24.93a7.35,7.35,0,0,0,7.35,7.34H24.92a7.35,7.35,0,0,0,7.35-7.34V10.7a7.36,7.36,0,0,0-7.35-7.35Z"/></g></g></svg>