<svg xmlns="http://www.w3.org/2000/svg" viewBox="0 0 45.67 36.16"><defs><style>.cls-1{fill:#fff;stroke:#000;stroke-miterlimit:10;stroke-width:0.5px;}</style></defs><title>Zasób 4</title><g id="Warstwa_2" data-name="Warstwa 2"><g id="Warstwa_1-2" data-name="Warstwa 1"><path class="cls-1" d="M22.83,27c-3.61,0-7.22-3.13-9-4.46C4.77,16.3,2.06,14.07.25,12.73V31.45a4.49,4.49,0,0,0,4.52,4.46H40.9a4.49,4.49,0,0,0,4.52-4.46V12.73c-1.81,1.34-4.52,3.57-13.55,9.81C30.06,23.87,26.45,27,22.83,27ZM40.9.25H4.77A4.49,4.49,0,0,0,.25,4.71V6.94C3.86,9.61,3.41,9.61,16.51,19c1.36.89,4.07,3.57,6.32,3.57s5-2.68,6.33-3.12c13.1-9.36,12.65-9.36,16.26-12V4.71A4.49,4.49,0,0,0,40.9.25Z"/></g></g></svg>